<svg width="152" height="72" viewBox="0 0 152 72" fill="none" xmlns="http://www.w3.org/2000/svg">
<path d="M27.876 46.7932C32.2506 46.7932 35.0775 43.9107 35.0775 39.4499C35.0775 34.9896 32.2506 32.1071 27.876 32.1071C23.5013 32.1071 20.6744 34.9896 20.6744 39.4499C20.6744 43.9107 23.5013 46.7932 27.876 46.7932ZM23.577 39.4499C23.577 35.6162 25.1035 33.5048 27.876 33.5048C30.6485 33.5048 32.1754 35.6162 32.1754 39.4499C32.1754 43.2841 30.6485 45.3954 27.876 45.3954C25.1035 45.3954 23.577 43.2841 23.577 39.4499Z" fill="#231F20"/>
<path d="M104.072 45.2585H96.8048L106.409 33.3144V32.6552H94.7521L93.9145 40.4788L94.8299 40.6102L96.8044 33.9154H103.033L93.393 45.8369L93.3748 45.8595V46.5187H106.13L106.688 38.6912L105.716 38.5941L104.072 45.2585Z" fill="#231F20"/>
<path d="M76.6991 44.7589V36.5732C76.6991 33.6934 74.8029 32.1072 71.3594 32.1072C68.1742 32.1072 66.268 33.6338 66.1293 36.2947L65.9849 38.8952L68.6213 37.7229V35.7512C68.6213 34.2143 69.5741 33.3679 71.3046 33.3679C73.1138 33.3679 74.0701 34.4762 74.0701 36.5732V38.4265L71.2576 39.1237C66.9204 40.1946 65.3077 41.4121 65.3077 43.6145C65.3077 45.6645 66.8347 46.7933 69.6072 46.7933C71.656 46.7933 73.2856 45.8886 74.201 44.245H74.3441V46.5191H78.8897V45.2585H77.1984L76.6991 44.7589ZM74.0701 39.8269V40.135C74.0701 43.0562 72.4223 45.2585 70.2369 45.2585C68.8217 45.2585 68.0737 44.6144 68.0737 43.3956C68.0737 41.7607 69.6454 40.8225 74.0701 39.8269Z" fill="#231F20"/>
<path d="M61.2279 44.7589V37.121C61.2279 34.0284 59.4127 32.1072 56.4906 32.1072C54.3034 32.1072 52.4477 33.028 51.5153 34.5728H51.3483C50.8512 33.0502 49.1568 32.1072 46.9071 32.1072C44.86 32.1072 42.9591 33.051 41.9336 34.5728H41.7861V32.0563L41.6674 32.1159C40.3062 32.7965 38.6822 33.2029 37.3227 33.2029H37.2405V34.4635H39.4316V44.7589L38.9319 45.2584H37.2405V46.5191H63.4185V45.2584H61.7276L61.2279 44.7589ZM42.0601 44.7589V38.4909C42.0601 35.6689 43.6023 33.9157 46.0851 33.9157C47.8926 33.9157 49.015 35.3539 49.015 37.6693V44.7589L48.5158 45.2584H42.5598L42.0601 44.7589ZM51.644 44.7589V38.4909C51.644 35.6689 53.1866 33.9157 55.6695 33.9157C57.4765 33.9157 58.599 35.3539 58.599 37.6693V44.7589L58.0993 45.2584H52.1437L51.644 44.7589Z" fill="#231F20"/>
<path d="M88.3712 39.0192L86.0431 37.9231C84.391 37.1668 83.6542 36.404 83.6542 35.4497C83.6542 34.1459 84.5858 33.3674 86.1458 33.3674C88.0119 33.3674 89.3897 34.9414 89.9255 37.685L89.9399 37.7582L90.9467 37.6611L90.3813 32.6551H90.0338C89.1727 32.6551 88.4864 32.515 87.8232 32.3792C87.1674 32.2456 86.4894 32.1072 85.653 32.1072C83.225 32.1072 81.4628 33.7778 81.4628 36.0802C81.4628 37.87 82.3534 39.0562 84.4397 40.0449L87.233 41.3873C88.6582 42.0723 89.294 42.7846 89.294 43.6967C89.294 44.9647 88.0433 45.5322 86.8029 45.5322C84.9402 45.5322 82.5879 44.6414 81.9555 40.3965L81.9438 40.3195L80.9078 40.4169L81.4636 46.1706L81.4706 46.245H81.8194C83.0502 46.245 84.0143 46.4095 84.865 46.5544C85.5848 46.6771 86.2645 46.7933 86.9947 46.7933C89.7555 46.7933 91.7591 45.2141 91.7591 43.0392C91.7591 41.3273 90.7457 40.125 88.3712 39.0192Z" fill="#231F20"/>
<path d="M3.33414 45.2585H1.0957V46.5187H20.4279V45.2585H18.7275L17.9403 44.7337L10.9197 34.1151L16.7404 27.6139H19.0589V26.3537H1.0957V27.6139H3.33414L3.83384 28.1139V44.759L3.33414 45.2585ZM14.1336 45.2585H7.23607L6.73637 44.759V38.7147L8.91609 36.2704L14.3641 44.7977L14.1336 45.2585ZM6.73637 36.6042V28.1139L7.23607 27.6139H14.1336L14.3597 28.0665L6.73637 36.6042Z" fill="#231F20"/>
<path d="M60.2693 20.052H58.3453L53.801 12.2035L57.4815 8.70882H59.7217V7.44818H49.8638V8.01086e-05L49.7447 0.0596962C48.3843 0.740278 46.6577 1.14671 45.1264 1.14671H45.0443V2.40692H47.2353V19.552L46.7356 20.052H45.0443V21.3122H60.2693V20.052ZM49.8638 14.1091V8.70882H54.9609L55.1848 9.1566L49.8638 14.1091ZM55.0561 19.5877L54.8239 20.052H50.3635L49.8638 19.552V15.868L51.9509 13.8837L55.0561 19.5877Z" fill="#231F20"/>
<path d="M83.9212 19.0381H84.0639V21.3122H88.6099V20.052H86.919L86.4193 19.552V11.3664C86.4193 8.48651 84.5231 6.90037 81.0796 6.90037C77.8944 6.90037 75.9882 8.4269 75.8499 11.0883L75.7051 13.6883L78.3415 12.516V10.5444C78.3415 9.00739 79.2943 8.16102 81.0248 8.16102C82.834 8.16102 83.7903 9.26935 83.7903 11.3664V13.2201L80.9778 13.9172C76.6406 14.9882 75.028 16.2053 75.028 18.4076C75.028 20.4576 76.5549 21.5864 79.327 21.5864C81.3766 21.5864 83.0062 20.6817 83.9212 19.0381ZM79.9567 20.052C78.5415 20.052 77.7939 19.4076 77.7939 18.1891C77.7939 16.5534 79.3652 15.6156 83.7903 14.62V14.9281C83.7903 17.8493 82.1425 20.052 79.9567 20.052Z" fill="#231F20"/>
<path d="M150.309 20.052L149.809 19.552V11.3664C149.809 8.48651 147.913 6.90037 144.47 6.90037C141.284 6.90037 139.378 8.4269 139.24 11.0883L139.095 13.6883L141.732 12.516V10.5448C141.732 9.00739 142.684 8.16102 144.415 8.16102C146.224 8.16102 147.18 9.26935 147.18 11.3664V13.2201L144.368 13.9172C140.03 14.9882 138.418 16.2053 138.418 18.408C138.418 20.4576 139.945 21.5864 142.717 21.5864C144.766 21.5864 146.396 20.6821 147.311 19.0381H147.454V21.3122H152V20.052H150.309ZM147.18 14.62V14.9281C147.18 17.8493 145.532 20.052 143.347 20.052C141.932 20.052 141.184 19.408 141.184 18.1891C141.184 16.5534 142.755 15.6156 147.18 14.62Z" fill="#231F20"/>
<path d="M67.498 20.3258C65.6357 20.3258 63.2829 19.4346 62.6506 15.1901L62.6388 15.113L61.6029 15.2105L62.1661 21.0381H62.5145C63.7452 21.0381 64.7098 21.2026 65.5605 21.3479C66.2798 21.4702 66.9596 21.5864 67.6898 21.5864C70.4505 21.5864 72.4541 20.0077 72.4541 17.8323C72.4541 16.1204 71.4408 14.9181 69.0662 13.8128L66.7382 12.7162C65.086 11.9599 64.3489 11.1971 64.3489 10.2432C64.3489 8.93951 65.2804 8.16102 66.8409 8.16102C68.707 8.16102 70.0848 9.73453 70.621 12.4782L70.6354 12.5513L71.6417 12.4542L71.0764 7.44823H70.7293C69.8682 7.44823 69.1819 7.30811 68.5183 7.17278C67.8624 7.03875 67.1849 6.90037 66.3481 6.90037C63.9205 6.90037 62.1583 8.57137 62.1583 10.8733C62.1583 12.6636 63.0485 13.8494 65.1347 14.838L67.9281 16.1805C69.3537 16.8654 69.99 17.5778 69.99 18.4898C69.99 19.7583 68.7383 20.3258 67.498 20.3258Z" fill="#231F20"/>
<path d="M3.97071 1.14693V2.40714H8.12619L8.61197 2.89321L1.99756 20.0522H6.10352e-05V21.312H20.4274V20.0522H18.1302L11.2496 1.20089L11.2301 1.14693H3.97071ZM9.44872 4.48979H9.60746L12.4 12.7912H6.2809L9.44872 4.48979ZM3.7376 19.5657L5.83469 14.0514H12.8122L14.7741 19.5644L14.287 20.0522H4.22382L3.7376 19.5657Z" fill="#231F20"/>
<path d="M104.629 19.552V11.9146C104.629 8.68097 102.946 6.90032 99.8914 6.90032C97.7422 6.90032 95.9782 7.77585 94.9179 9.36634H94.7709V6.84941L94.6518 6.90903C93.291 7.59004 91.667 7.99648 90.3075 7.99648H90.2253V9.25712H92.4155V19.552L91.9162 20.052H90.2253V21.3122H106.819V20.052H105.128L104.629 19.552ZM95.0449 19.552V13.2845C95.0449 10.3337 96.474 8.70882 99.0699 8.70882C100.987 8.70882 101.999 10.0069 101.999 12.4625V19.552L101.5 20.052H95.5442L95.0449 19.552Z" fill="#231F20"/>
<path d="M121.879 19.5519V2.67029e-05L121.76 0.0596428C120.42 0.730215 117.916 1.14666 115.225 1.14666H115.143V2.40686H119.25V8.46247H119.094C118.153 7.48381 116.608 6.90027 114.952 6.90027C111.096 6.90027 108.297 9.98856 108.297 14.2431C108.297 18.5668 111.034 21.5863 114.952 21.5863C116.909 21.5863 118.56 20.7678 119.38 19.3944H119.524V21.3121H124.07V20.0519H122.378L121.879 19.5519ZM119.25 12.7366V15.4763C119.25 18.2987 117.771 20.0519 115.389 20.0519C112.688 20.0519 111.2 17.9889 111.2 14.2431C111.2 10.6065 112.807 8.43506 115.499 8.43506C117.778 8.43506 119.25 10.1235 119.25 12.7366Z" fill="#231F20"/>
<path d="M36.693 21.5863C40.1874 21.5863 42.5924 19.2647 43.2909 15.2161L43.3048 15.1373L42.1879 14.9141L42.171 14.9937C41.5278 18.0663 39.646 20.0519 37.3775 20.0519C34.8786 20.0519 33.1329 17.7195 33.1329 14.3806C33.1329 14.2883 33.1329 14.0881 33.1511 13.9145H42.1488L43.0182 13.0442V13.0103C43.0182 11.1639 42.455 9.61824 41.389 8.54123C40.327 7.46771 38.807 6.9007 36.9939 6.9007C32.9019 6.9007 30.2582 9.86889 30.2582 14.4624C30.2582 18.79 32.7841 21.5863 36.693 21.5863ZM33.2816 12.6543C33.6604 9.8554 35.0743 8.18832 37.0761 8.18832C38.971 8.18832 40.1052 9.67002 40.1152 12.1543L39.6164 12.6543H33.2816Z" fill="#231F20"/>
<path d="M130.366 10.4623H130.231V6.84962L130.112 6.90924C128.751 7.58982 127.127 7.99625 125.767 7.99625H125.685V9.2569H127.876V19.5518L127.376 20.0518H125.685V21.3124H135.434V20.0518H131.004L130.505 19.5518V14.1063C130.505 11.4126 131.805 9.80476 133.982 9.80476H136.24L136.822 6.89401L134.525 7.03761C132.715 7.1477 131.126 8.45795 130.366 10.4623Z" fill="#231F20"/>
<path d="M28.3688 20.052H26.6779L26.1782 19.552V8.01086e-05L26.0594 0.0596962C24.6986 0.740278 22.9721 1.14671 21.4408 1.14671H21.3586V2.40692H23.5492V19.552L23.0499 20.052H21.3586V21.3122H28.3688V20.052Z" fill="#231F20"/>
<path d="M23.8505 69.9656V50.4137L23.7313 50.4729C22.3705 51.1539 20.6439 51.5603 19.1131 51.5603H19.0309V52.8205H21.2215V69.9656L20.7222 70.4652H19.0309V71.7258H26.0411V70.4652H24.3502L23.8505 69.9656Z" fill="#231F20"/>
<path d="M9.94035 51.5602H1.09534V52.8204H3.33421L3.83391 53.3204V69.9655L3.33421 70.4655H1.09534V71.7257H12.7607V70.4655H7.23614L6.73644 69.9655V62.6841H9.94035C14.6355 62.6841 17.5524 60.5318 17.5524 57.0676C17.5524 53.6707 14.6355 51.5602 9.94035 51.5602ZM14.3763 57.0676C14.3763 59.836 12.7594 61.4239 9.94035 61.4239H6.73644V53.3204L7.23614 52.8204H9.94035C12.8007 52.8204 14.3763 54.3287 14.3763 57.0676Z" fill="#231F20"/>
<path d="M41.7858 69.9656V57.8618H27.3823V59.1224H29.0737L29.5729 59.622V66.9856C29.5729 70.2188 31.2551 71.9999 34.3103 71.9999C36.4591 71.9999 38.2235 71.1244 39.283 69.5339H39.4308V71.7258H43.9764V70.4651H42.2855L41.7858 69.9656ZM39.1568 59.622V65.6153C39.1568 68.5661 37.7273 70.191 35.1318 70.191C33.2148 70.191 32.2019 68.8934 32.2019 66.4378V59.1224H38.6571L39.1568 59.622Z" fill="#231F20"/>
<path d="M53.3212 64.226L50.9932 63.1298C49.3405 62.3735 48.6038 61.6107 48.6038 60.6564C48.6038 59.3527 49.5354 58.5742 51.0958 58.5742C52.9615 58.5742 54.3393 60.1482 54.876 62.8918L54.8903 62.9649L55.8967 62.8679L55.3313 57.8619H54.9838C54.1227 57.8619 53.4364 57.7217 52.7728 57.5864C52.1174 57.4524 51.4394 57.3136 50.6026 57.3136C48.175 57.3136 46.4132 58.985 46.4132 61.2865C46.4132 63.0772 47.3035 64.263 49.3897 65.2517L52.183 66.5941C53.6087 67.279 54.2445 67.991 54.2445 68.9039C54.2445 70.1715 52.9933 70.739 51.7529 70.739C49.8903 70.739 47.5374 69.8482 46.9055 65.6033L46.8938 65.5262L45.8578 65.6237L46.4206 71.4517H46.769C48.0002 71.4517 48.9643 71.6162 49.815 71.7611C50.5348 71.8838 51.2145 72 51.9443 72C54.7055 72 56.7091 70.4209 56.7091 68.246C56.7091 66.5336 55.6957 65.3313 53.3212 64.226Z" fill="#231F20"/>
<path d="M66.8423 51.5605C63.1431 51.5605 60.4584 54.2654 60.4584 57.9921C60.4584 61.8541 63.1431 64.6569 66.8423 64.6569C70.5416 64.6569 73.2263 61.8541 73.2263 57.9921C73.2263 54.2654 70.5416 51.5605 66.8423 51.5605ZM66.8423 63.8275C63.6154 63.8275 61.273 61.3732 61.273 57.9921C61.273 54.7458 63.6154 52.3903 66.8423 52.3903C70.0693 52.3903 72.4117 54.7458 72.4117 57.9921C72.4117 61.3732 70.0693 63.8275 66.8423 63.8275Z" fill="#15B593"/>
<path d="M67.5052 54.2005H66.18V57.4459H62.9365V58.7718H66.18V62.0168H67.5052V58.7718H70.7482V57.4459H67.5052V54.2005Z" fill="#15B593"/>
</svg>
